# xmcd CD database file
#
# Track frame offsets:
#	183
#	11758
#	31448
#	52785
#	76685
#	91595
#	115613
#	128863
#	139198
#	146563
#
# Disc length: 2285 seconds
#
# Revision: 0
# Processed by: cddbd v1.5.2PL0 Copyright (c) Steve Scherf et al.
# Submitted via: CDex 1.70beta2
#
DISCID=7308eb0a
DTITLE=Quintette Sax of Paris - Jazz Paris Sax
DYEAR=1988
DGENRE=Jazz
TTITLE0=Stan Kenton Opus in Pastel
TTITLE1=Jerome Naulais Mise a Sax
TTITLE2=Claude Bolling Main de Fer et Gant de Velours
TTITLE3=Jean-Claude Naude Un Petit Homme Timide
TTITLE4=Chick Corea Spain
TTITLE5=Lennie Niehaus A Ballad for Five
TTITLE6=Michel Legrand Porcelaine de Sax
TTITLE7=Vladimir Cosma Sax Brothers
TTITLE8=Lennie Niehaus Waltz of the Sax
TTITLE9=Martial Solal Ballade pour Quintette de Saxophones
EXTD=YEAR: 1988
EXTT0=
EXTT1=
EXTT2=
EXTT3=
EXTT4=
EXTT5=
EXTT6=
EXTT7=
EXTT8=
EXTT9=
PLAYORDER=
